<svg xmlns="http://www.w3.org/2000/svg" width="644" height="623" viewBox="0 0 644 623" fill="none">
  <mask id="path-1-outside-1_220_879" maskUnits="userSpaceOnUse" x="-49.7753" y="-20.4111" width="719.47" height="666.858" fill="black">
  <rect fill="white" x="-49.7753" y="-20.4111" width="719.47" height="666.858"/>
  <path fill-rule="evenodd" clip-rule="evenodd" d="M559.33 361.169C558.072 356.136 559.598 350.842 563.136 347.048C600.762 306.7 621.403 250.913 615.277 191.727C604.03 83.0713 506.829 4.10624 398.174 15.3533C289.518 26.6004 210.553 123.801 221.8 232.456C227.119 283.837 251.658 328.579 287.54 360.282C292.465 364.633 293.484 372.048 289.551 377.312C286.163 381.847 280.102 383.358 274.763 381.479C259.001 375.932 241.793 373.699 224.069 375.534C167.805 381.358 125.033 426.238 119.884 480.47C119.019 489.577 113.309 497.826 104.536 500.42L95.7458 503.019C87.2647 506.028 78.1312 500.996 71.6469 494.756C69.5406 492.728 67.1349 490.943 64.45 489.468C48.0617 480.466 27.4786 486.453 18.4763 502.842C9.47408 519.23 15.4616 539.813 31.8499 548.815C48.2382 557.818 68.8214 551.83 77.8236 535.442C79.2574 532.832 80.3109 530.115 81.0028 527.356C83.0778 519.08 88.0044 510.589 96.3421 508.779L99.2999 508.282C110.61 506.379 121.045 514.456 124.354 525.437C140.186 577.965 191.511 613.578 248.103 607.72C297.548 602.602 336.574 567.32 348.801 522.035C350.525 515.649 356.927 511.409 363.328 513.079C363.893 513.226 364.446 513.418 364.982 513.652L379.6 520.036C385.363 522.553 389.443 527.702 391.707 533.569C403.429 563.937 434.375 583.96 468.309 580.447C508.933 576.242 538.456 539.902 534.251 499.278C533.6 492.987 532.178 486.962 530.088 481.287C527.303 473.723 527.521 465.077 532.335 458.613L533.873 456.547C535.423 454.465 537.366 452.706 539.592 451.37C547.308 446.735 557.032 448.314 565.205 452.087C572.364 455.391 580.478 456.874 588.89 456.003C613.851 453.419 631.992 431.09 629.408 406.128C626.824 381.167 604.494 363.026 579.533 365.61C576.075 365.968 572.747 366.705 569.587 367.776C566.61 368.785 563.232 368.11 561.2 365.711C560.515 364.902 560.025 363.946 559.768 362.917L559.33 361.169ZM548.383 368.863C544.629 367.345 540.363 367.996 537.124 370.426C509.411 391.223 475.876 405.002 438.903 408.829C403.014 412.544 368.375 406.417 337.67 392.629C333.853 390.915 329.429 391.079 325.843 393.237C324.683 393.935 323.638 394.829 322.766 395.863C318.31 401.151 318.839 409.029 323.43 414.199C339.088 431.833 349.566 454.363 352.179 479.61C352.937 486.938 358.068 493.295 365.309 494.654L367.787 495.119C378.25 497.083 387.999 489.559 391.926 479.664C401.765 454.876 424.717 436.273 453.082 433.337C470.71 431.512 487.532 436.039 501.271 445.067C509.409 450.415 520.095 451.859 528.173 446.422L529.584 445.472C538.504 439.468 540.549 427.369 539.158 416.707C539.105 416.302 539.057 415.894 539.015 415.485C537.542 401.256 542.803 387.882 552.224 378.534C553.793 376.976 554.39 374.641 553.547 372.596C553.026 371.335 552.02 370.335 550.755 369.823L548.383 368.863Z"/>
  </mask>
  <path fill-rule="evenodd" clip-rule="evenodd" d="M559.33 361.169C558.072 356.136 559.598 350.842 563.136 347.048C600.762 306.7 621.403 250.913 615.277 191.727C604.03 83.0713 506.829 4.10624 398.174 15.3533C289.518 26.6004 210.553 123.801 221.8 232.456C227.119 283.837 251.658 328.579 287.54 360.282C292.465 364.633 293.484 372.048 289.551 377.312C286.163 381.847 280.102 383.358 274.763 381.479C259.001 375.932 241.793 373.699 224.069 375.534C167.805 381.358 125.033 426.238 119.884 480.47C119.019 489.577 113.309 497.826 104.536 500.42L95.7458 503.019C87.2647 506.028 78.1312 500.996 71.6469 494.756C69.5406 492.728 67.1349 490.943 64.45 489.468C48.0617 480.466 27.4786 486.453 18.4763 502.842C9.47408 519.23 15.4616 539.813 31.8499 548.815C48.2382 557.818 68.8214 551.83 77.8236 535.442C79.2574 532.832 80.3109 530.115 81.0028 527.356C83.0778 519.08 88.0044 510.589 96.3421 508.779L99.2999 508.282C110.61 506.379 121.045 514.456 124.354 525.437C140.186 577.965 191.511 613.578 248.103 607.72C297.548 602.602 336.574 567.32 348.801 522.035C350.525 515.649 356.927 511.409 363.328 513.079C363.893 513.226 364.446 513.418 364.982 513.652L379.6 520.036C385.363 522.553 389.443 527.702 391.707 533.569C403.429 563.937 434.375 583.96 468.309 580.447C508.933 576.242 538.456 539.902 534.251 499.278C533.6 492.987 532.178 486.962 530.088 481.287C527.303 473.723 527.521 465.077 532.335 458.613L533.873 456.547C535.423 454.465 537.366 452.706 539.592 451.37C547.308 446.735 557.032 448.314 565.205 452.087C572.364 455.391 580.478 456.874 588.89 456.003C613.851 453.419 631.992 431.09 629.408 406.128C626.824 381.167 604.494 363.026 579.533 365.61C576.075 365.968 572.747 366.705 569.587 367.776C566.61 368.785 563.232 368.11 561.2 365.711C560.515 364.902 560.025 363.946 559.768 362.917L559.33 361.169ZM548.383 368.863C544.629 367.345 540.363 367.996 537.124 370.426C509.411 391.223 475.876 405.002 438.903 408.829C403.014 412.544 368.375 406.417 337.67 392.629C333.853 390.915 329.429 391.079 325.843 393.237C324.683 393.935 323.638 394.829 322.766 395.863C318.31 401.151 318.839 409.029 323.43 414.199C339.088 431.833 349.566 454.363 352.179 479.61C352.937 486.938 358.068 493.295 365.309 494.654L367.787 495.119C378.25 497.083 387.999 489.559 391.926 479.664C401.765 454.876 424.717 436.273 453.082 433.337C470.71 431.512 487.532 436.039 501.271 445.067C509.409 450.415 520.095 451.859 528.173 446.422L529.584 445.472C538.504 439.468 540.549 427.369 539.158 416.707C539.105 416.302 539.057 415.894 539.015 415.485C537.542 401.256 542.803 387.882 552.224 378.534C553.793 376.976 554.39 374.641 553.547 372.596C553.026 371.335 552.02 370.335 550.755 369.823L548.383 368.863Z" fill="url(#paint0_radial_220_879)"/>
  <path d="M64.45 489.468L57.7097 501.739L57.7097 501.739L64.45 489.468ZM18.4763 502.842L6.20575 496.101L6.20575 496.101L18.4763 502.842ZM31.8499 548.815L38.5903 536.545L31.8499 548.815ZM77.8236 535.442L65.553 528.701L65.553 528.701L77.8236 535.442ZM550.755 369.823L545.504 382.801L550.755 369.823ZM501.271 445.067L493.582 456.767L501.271 445.067ZM528.173 446.422L535.99 458.036L528.173 446.422ZM367.787 495.119L365.204 508.879L367.787 495.119ZM391.926 479.664L378.914 474.5L391.926 479.664ZM323.43 414.199L312.962 423.495L323.43 414.199ZM337.67 392.629L331.935 405.401L337.67 392.629ZM548.383 368.863L543.132 381.841L548.383 368.863ZM569.587 367.776L565.095 354.516L569.587 367.776ZM565.205 452.087L571.072 439.375L565.205 452.087ZM364.982 513.652L370.586 500.822L364.982 513.652ZM365.309 494.654L362.726 508.414L365.309 494.654ZM529.584 445.472L521.766 433.858L529.584 445.472ZM539.158 416.707L525.275 418.519L539.158 416.707ZM348.801 522.035L335.285 518.386L348.801 522.035ZM559.768 362.917L573.349 359.521L559.768 362.917ZM119.884 480.47L105.947 479.147L119.884 480.47ZM104.536 500.42L108.506 513.845L104.536 500.42ZM99.2999 508.282L101.622 522.088L99.2999 508.282ZM124.354 525.437L137.759 521.397L124.354 525.437ZM274.763 381.479L279.41 368.273L274.763 381.479ZM379.6 520.036L373.996 532.866L379.6 520.036ZM391.707 533.569L378.646 538.61L391.707 533.569ZM71.6469 494.756L61.9391 504.843L71.6469 494.756ZM287.54 360.282L278.271 370.774L287.54 360.282ZM530.088 481.287L516.95 486.124L530.088 481.287ZM532.335 458.613L521.106 450.251L532.335 458.613ZM533.873 456.547L545.102 464.909L533.873 456.547ZM563.136 347.048L573.375 356.596L563.136 347.048ZM559.33 361.169L545.749 364.565L559.33 361.169ZM601.351 193.168C607.044 248.162 587.882 299.985 552.898 337.5L573.375 356.596C613.643 313.416 635.763 253.663 629.202 190.285L601.351 193.168ZM399.615 29.2789C500.58 18.8279 590.9 92.2037 601.351 193.168L629.202 190.285C617.159 73.939 513.079 -10.6154 396.732 1.42774L399.615 29.2789ZM235.726 231.015C225.275 130.05 298.651 39.7299 399.615 29.2789L396.732 1.42774C280.386 13.4709 195.832 117.551 207.875 233.898L235.726 231.015ZM296.81 349.791C263.457 320.322 240.669 278.767 235.726 231.015L207.875 233.898C213.569 288.908 239.86 336.837 278.271 370.774L296.81 349.791ZM279.41 368.273C261.737 362.054 242.452 359.556 222.627 361.608L225.51 389.459C241.134 387.842 256.264 389.811 270.116 394.685L279.41 368.273ZM222.627 361.608C159.599 368.132 111.713 418.404 105.947 479.147L133.821 481.794C138.352 434.073 176.011 394.583 225.51 389.459L222.627 361.608ZM100.567 486.994L91.7765 489.593L99.7152 516.444L108.506 513.845L100.567 486.994ZM81.3548 484.668C78.3678 481.794 74.966 479.271 71.1904 477.197L57.7097 501.739C59.3037 502.614 60.7133 503.663 61.9391 504.843L81.3548 484.668ZM71.1904 477.197C48.0252 464.473 18.9306 472.936 6.20575 496.101L30.7469 509.582C36.0266 499.971 48.0982 496.459 57.7097 501.739L71.1904 477.197ZM6.20575 496.101C-6.51911 519.266 1.94441 548.361 25.1096 561.086L38.5903 536.545C28.9789 531.265 25.4673 519.193 30.7469 509.582L6.20575 496.101ZM25.1096 561.086C48.2747 573.811 77.3693 565.347 90.0942 542.182L65.553 528.701C60.2734 538.313 48.2017 541.824 38.5903 536.545L25.1096 561.086ZM90.0942 542.182C92.1104 538.512 93.6014 534.673 94.5824 530.761L67.4231 523.951C67.0205 525.557 66.4044 527.151 65.553 528.701L90.0942 542.182ZM98.6643 522.585L101.622 522.088L96.9777 494.476L94.0199 494.973L98.6643 522.585ZM110.95 529.477C128.683 588.313 186.149 628.208 249.544 621.646L246.661 593.794C196.874 598.948 151.689 567.616 137.759 521.397L110.95 529.477ZM249.544 621.646C304.942 615.911 348.63 576.377 362.317 525.684L335.285 518.386C324.518 558.262 290.154 589.292 246.661 593.794L249.544 621.646ZM359.379 526.482L373.996 532.866L385.203 507.207L370.586 500.822L359.379 526.482ZM378.646 538.61C392.586 574.723 429.372 598.553 469.751 594.373L466.868 566.522C439.378 569.367 414.273 553.152 404.768 528.528L378.646 538.61ZM469.751 594.373C518.065 589.372 553.178 546.151 548.176 497.837L520.325 500.72C523.734 533.652 499.801 563.113 466.868 566.522L469.751 594.373ZM548.176 497.837C547.404 490.376 545.715 483.21 543.226 476.45L516.95 486.124C518.64 490.713 519.795 495.598 520.325 500.72L548.176 497.837ZM543.563 466.975L545.102 464.909L522.644 448.185L521.106 450.251L543.563 466.975ZM559.338 464.798C568.717 469.127 579.35 471.066 590.331 469.929L587.448 442.078C581.605 442.682 576.012 441.655 571.072 439.375L559.338 464.798ZM590.331 469.929C622.984 466.549 646.714 437.339 643.334 404.687L615.482 407.57C617.27 424.84 604.719 440.29 587.448 442.078L590.331 469.929ZM643.334 404.687C639.954 372.035 610.744 348.305 578.092 351.684L580.974 379.536C598.245 377.748 613.695 390.299 615.482 407.57L643.334 404.687ZM578.092 351.684C573.587 352.151 569.237 353.113 565.095 354.516L574.08 381.035C576.258 380.297 578.562 379.785 580.974 379.536L578.092 351.684ZM573.349 359.521L572.912 357.773L545.749 364.565L546.186 366.313L573.349 359.521ZM528.721 359.229C502.982 378.544 471.84 391.345 437.462 394.904L440.345 422.755C479.912 418.659 515.841 403.902 545.527 381.624L528.721 359.229ZM437.462 394.904C404.09 398.358 371.922 392.663 343.405 379.858L331.935 405.401C364.828 420.171 401.939 426.731 440.345 422.755L437.462 394.904ZM366.105 478.168C363.18 449.911 351.438 424.656 333.899 404.904L312.962 423.495C326.738 439.01 335.952 458.815 338.253 481.051L366.105 478.168ZM370.369 481.359L367.891 480.894L362.726 508.414L365.204 508.879L370.369 481.359ZM451.64 419.411C417.886 422.905 390.6 445.055 378.914 474.5L404.939 484.829C412.929 464.697 431.549 449.641 454.523 447.263L451.64 419.411ZM508.959 433.367C492.623 422.632 472.593 417.243 451.64 419.411L454.523 447.263C468.827 445.782 482.44 449.445 493.582 456.767L508.959 433.367ZM521.766 433.858L520.355 434.808L535.99 458.036L537.402 457.086L521.766 433.858ZM525.089 416.926C525.144 417.459 525.207 417.99 525.275 418.519L553.04 414.896C553.003 414.614 552.97 414.329 552.94 414.044L525.089 416.926ZM542.362 368.596C530.065 380.8 523.162 398.307 525.089 416.926L552.94 414.044C551.922 404.205 555.542 394.965 562.085 388.471L542.362 368.596ZM543.132 381.841L545.504 382.801L556.006 356.845L553.633 355.885L543.132 381.841ZM566.489 367.258C564.535 362.52 560.757 358.767 556.006 356.845L545.504 382.801C543.284 381.903 541.518 380.149 540.605 377.935L566.489 367.258ZM562.085 388.471C567.209 383.386 569.739 375.138 566.489 367.258L540.605 377.935C539.041 374.143 540.377 370.566 542.362 368.596L562.085 388.471ZM493.582 456.767C504.85 464.171 521.838 467.562 535.99 458.036L520.355 434.808C518.351 436.157 513.968 436.659 508.959 433.367L493.582 456.767ZM365.204 508.879C384.317 512.466 399.406 498.768 404.939 484.829L378.914 474.5C377.924 476.994 376.227 479.046 374.45 480.251C372.769 481.392 371.414 481.555 370.369 481.359L365.204 508.879ZM312.061 386.841C302.614 398.049 304.298 413.738 312.962 423.495L333.899 404.904C333.835 404.831 333.781 404.745 333.743 404.651C333.704 404.554 333.693 404.476 333.691 404.438C333.689 404.403 333.697 404.44 333.665 404.539C333.63 404.649 333.562 404.778 333.471 404.886L312.061 386.841ZM318.625 381.241C316.135 382.739 313.915 384.641 312.061 386.841L333.471 404.886C333.362 405.016 333.232 405.13 333.061 405.233L318.625 381.241ZM343.405 379.858C335.644 376.372 326.361 376.586 318.625 381.241L333.061 405.233C332.497 405.572 332.062 405.458 331.935 405.401L343.405 379.858ZM545.527 381.624C545.049 381.983 544.163 382.259 543.132 381.841L553.633 355.885C545.095 352.431 535.676 354.009 528.721 359.229L545.527 381.624ZM565.095 354.516C566.636 353.994 569.608 353.976 571.885 356.664L550.516 374.758C556.856 382.245 566.584 383.575 574.08 381.035L565.095 354.516ZM546.799 463.372C548.636 462.269 552.838 461.798 559.338 464.798L571.072 439.375C561.227 434.831 545.981 431.202 532.384 439.368L546.799 463.372ZM359.794 526.625C359.652 526.588 359.513 526.54 359.379 526.482L370.586 500.822C369.38 500.296 368.135 499.864 366.862 499.532L359.794 526.625ZM338.253 481.051C339.557 493.645 348.55 505.753 362.726 508.414L367.891 480.894C367.662 480.851 367.339 480.724 366.963 480.284C366.555 479.805 366.197 479.063 366.105 478.168L338.253 481.051ZM94.5824 530.761C95.295 527.919 96.3872 525.561 97.5308 524.034C98.6147 522.586 99.26 522.472 99.3125 522.46L93.3716 495.098C76.8732 498.68 69.8407 514.309 67.4231 523.951L94.5824 530.761ZM537.402 457.086C553.078 446.534 554.651 427.246 553.04 414.896L525.275 418.519C525.787 422.441 525.585 426.146 524.771 429.007C523.985 431.774 522.837 433.137 521.766 433.858L537.402 457.086ZM362.317 525.684C362.248 525.938 362.088 526.183 361.778 526.378C361.41 526.611 360.657 526.851 359.794 526.625L366.862 499.532C352.11 495.684 338.757 505.526 335.285 518.386L362.317 525.684ZM571.885 356.664C572.585 357.491 573.086 358.469 573.349 359.521L546.186 366.313C546.963 369.423 548.445 372.312 550.516 374.758L571.885 356.664ZM105.947 479.147C105.518 483.667 102.867 486.314 100.567 486.994L108.506 513.845C123.751 509.338 132.521 495.488 133.821 481.794L105.947 479.147ZM101.622 522.088C104.504 521.603 109.212 523.71 110.95 529.477L137.759 521.397C132.877 505.202 116.717 491.155 96.9777 494.476L101.622 522.088ZM278.336 368.932C278.636 368.53 279.01 368.347 279.21 368.293C279.3 368.268 279.355 368.267 279.377 368.268C279.4 368.269 279.409 368.273 279.41 368.273L270.116 394.685C280.573 398.365 293.313 395.665 300.766 385.693L278.336 368.932ZM373.996 532.866C375.467 533.508 377.344 535.238 378.646 538.61L404.768 528.528C401.541 520.167 395.258 511.598 385.203 507.207L373.996 532.866ZM91.0641 489.825C90.8772 489.891 90.0875 490.133 88.1479 489.357C86.1186 488.546 83.6967 486.922 81.3548 484.668L61.9391 504.843C69.2412 511.87 83.9624 522.055 100.428 516.213L91.0641 489.825ZM278.271 370.774C278.124 370.644 278.007 370.444 277.974 370.177C277.936 369.872 278.006 369.373 278.336 368.932L300.766 385.693C309.371 374.176 306.801 358.617 296.81 349.791L278.271 370.774ZM543.226 476.45C541.57 471.95 542.351 468.603 543.563 466.975L521.106 450.251C512.69 461.552 513.037 475.496 516.95 486.124L543.226 476.45ZM545.102 464.909C545.562 464.291 546.139 463.768 546.799 463.372L532.384 439.368C528.594 441.644 525.285 444.639 522.644 448.185L545.102 464.909ZM552.898 337.5C546.348 344.522 543.262 354.62 545.749 364.565L572.912 357.773C572.882 357.653 572.848 357.161 573.375 356.596L552.898 337.5Z" fill="#FAFAFA" mask="url(#path-1-outside-1_220_879)"/>
  <defs>
  <radialGradient id="paint0_radial_220_879" cx="0" cy="0" r="1" gradientUnits="userSpaceOnUse" gradientTransform="translate(168.44 253.076) rotate(32.7763) scale(577.489 631.984)">
  <stop offset="0.265418" stop-color="#1481F1"/>
  <stop offset="1" stop-color="#014FE9"/>
  </radialGradient>
  </defs>
</svg>