<svg width="24" height="25" viewBox="0 0 24 25" fill="none" xmlns="http://www.w3.org/2000/svg">
<g id="center-focus">
<path id="Icon" d="M8 4.5H6.66667C5.19391 4.5 4 5.69391 4 7.16667V8.5M8 20.5H6.66667C5.19391 20.5 4 19.3061 4 17.8333V16.5M16 4.5H17.3333C18.8061 4.5 20 5.69391 20 7.16667V8.5M16 20.5H17.3333C18.8061 20.5 20 19.3061 20 17.8333V16.5M15 12.5C15 14.1569 13.6569 15.5 12 15.5C10.3431 15.5 9 14.1569 9 12.5C9 10.8431 10.3431 9.5 12 9.5C13.6569 9.5 15 10.8431 15 12.5Z" stroke="#F5F5F5" stroke-width="2.66667" stroke-linecap="round" stroke-linejoin="round"/>
</g>
</svg>
