<svg xmlns="http://www.w3.org/2000/svg" width="26" height="26" viewBox="0 0 26 26" fill="none">
<path d="M6.33333 1H3.66667C2.19391 1 1 2.19391 1 3.66667V6.33333M6.33333 25H3.66667C2.19391 25 1 23.8061 1 22.3333V19.6667M19.6667 1H22.3333C23.8061 1 25 2.19391 25 3.66667V6.33333M19.6667 25H22.3333C23.8061 25 25 23.8061 25 22.3333V19.6667M10 7.66697C12 5.66683 15.5 6.62502 15.5 9.66667C15.5 12.6663 12.5 11.5 12.5 15.5M12.5 19.1161V19.6667" stroke="url(#paint0_linear_311_5900)" stroke-width="2" stroke-linecap="round" stroke-linejoin="round"/>
<defs>
<linearGradient id="paint0_linear_311_5900" x1="0.307693" y1="1" x2="21.45" y2="22.3562" gradientUnits="userSpaceOnUse">
<stop offset="0.4652" stop-color="#1481F1"/>
<stop offset="1" stop-color="#014FE9"/>
</linearGradient>
</defs>
</svg>