<svg xmlns="http://www.w3.org/2000/svg" width="32" height="32" viewBox="0 0 32 32" fill="none">
<path d="M23.6735 25.3332H25.6667C27.1394 25.3332 28.4225 24.1011 27.9547 22.7047C27.2417 20.5765 25.4874 19.2895 22.4036 18.8437M18.3335 14.4858C18.7215 14.6085 19.1658 14.6665 19.6667 14.6665C21.8889 14.6665 23 13.5236 23 10.6665C23 7.80936 21.8889 6.6665 19.6667 6.6665C19.1658 6.6665 18.7215 6.72455 18.3335 6.84719M11.6667 18.6665C16.4846 18.6665 19.0527 20.0126 19.9547 22.7047C20.4225 24.1011 19.1394 25.3332 17.6667 25.3332H5.66667C4.19391 25.3332 2.91081 24.1011 3.37867 22.7047C4.28062 20.0126 6.84873 18.6665 11.6667 18.6665ZM11.6667 14.6665C13.8889 14.6665 15 13.5236 15 10.6665C15 7.80936 13.8889 6.6665 11.6667 6.6665C9.44444 6.6665 8.33333 7.80936 8.33333 10.6665C8.33333 13.5236 9.44444 14.6665 11.6667 14.6665Z" stroke="url(#paint0_linear_274_932)" stroke-width="2" stroke-linecap="round" stroke-linejoin="round"/>
<defs>
<linearGradient id="paint0_linear_274_932" x1="2.27733" y1="6.6665" x2="17.9891" y2="27.9666" gradientUnits="userSpaceOnUse">
<stop offset="0.4652" stop-color="#1481F1"/>
<stop offset="1" stop-color="#014FE9"/>
</linearGradient>
</defs>
</svg>