<svg xmlns="http://www.w3.org/2000/svg" width="32" height="32" viewBox="0 0 32 32" fill="none">
  <path d="M5.33317 5.3335L13.1714 13.1717M26.6665 26.6668L18.8283 18.8286M13.1714 13.1717C12.4476 13.8956 11.9998 14.8956 11.9998 16.0002C11.9998 18.2093 13.7907 20.0002 15.9998 20.0002C17.1044 20.0002 18.1044 19.5524 18.8283 18.8286M13.1714 13.1717L18.8283 18.8286M9.02412 9.02445C6.30441 10.7988 3.95155 13.3682 2.6665 15.9999C4.99512 20.7687 10.8292 25.3335 15.9995 25.3335C18.3166 25.3335 20.7669 24.4167 22.9754 22.9757M13.015 7.12972C14.0151 6.83104 15.0197 6.66683 16.0004 6.66683C21.1708 6.66683 27.0039 11.2321 29.3332 16.0004C28.5972 17.507 27.5113 18.9934 26.2071 20.3218" stroke="url(#paint0_linear_274_920)" stroke-width="2" stroke-linecap="round" stroke-linejoin="round"/>
  <defs>
    <linearGradient id="paint0_linear_274_920" x1="1.89727" y1="5.3335" x2="20.1917" y2="28.4328" gradientUnits="userSpaceOnUse">
      <stop offset="0.4652" stop-color="#1481F1"/>
      <stop offset="1" stop-color="#014FE9"/>
    </linearGradient>
  </defs>
</svg>