<svg xmlns="http://www.w3.org/2000/svg" width="32" height="32" viewBox="0 0 32 32" fill="none">
  <path d="M11.8689 6.08819C12.14 4.86809 13.2222 4 14.472 4H15.5271C16.777 4 17.8592 4.86809 18.1303 6.08819L18.4009 7.3058C19.2824 7.65092 20.0986 8.12623 20.8258 8.70807L22.0181 8.33281C23.2103 7.95757 24.5032 8.46072 25.1281 9.54313L25.6556 10.4569C26.2806 11.5393 26.0699 12.9105 25.1488 13.7554L24.2285 14.5995C24.2973 15.0563 24.3329 15.524 24.3329 16C24.3329 16.476 24.2973 16.9437 24.2285 17.4005L25.1488 18.2446C26.0699 19.0895 26.2806 20.4607 25.6557 21.5431L25.1281 22.4569C24.5032 23.5393 23.2103 24.0424 22.0181 23.6672L20.8259 23.2919C20.0986 23.8738 19.2824 24.3491 18.4009 24.6942L18.1303 25.9118C17.8592 27.1319 16.777 28 15.5271 28H14.472C13.2222 28 12.14 27.1319 11.8689 25.9118L11.5983 24.6942C10.7168 24.3491 9.90057 23.8738 9.1733 23.2919L7.98103 23.6672C6.78883 24.0424 5.49596 23.5393 4.87103 22.4569L4.34349 21.5431C3.71856 20.4607 3.92926 19.0895 4.85033 18.2446L5.77062 17.4005C5.70188 16.9437 5.66625 16.476 5.66625 16C5.66625 15.524 5.70188 15.0563 5.77063 14.5995L4.85035 13.7554C3.92927 12.9105 3.71858 11.5393 4.34351 10.4569L4.87105 9.54314C5.49598 8.46072 6.78885 7.95758 7.98105 8.33282L9.17331 8.70808C9.90058 8.12623 10.7168 7.65092 11.5983 7.3058L11.8689 6.08819Z" stroke="url(#paint0_linear_274_889)" stroke-width="2" stroke-linecap="round" stroke-linejoin="round"/>
  <path d="M16.3329 16C16.3329 16.7364 15.7359 17.3333 14.9996 17.3333C14.2632 17.3333 13.6662 16.7364 13.6662 16C13.6662 15.2636 14.2632 14.6667 14.9996 14.6667C15.7359 14.6667 16.3329 15.2636 16.3329 16Z" stroke="url(#paint1_linear_274_889)" stroke-width="2" stroke-linecap="round" stroke-linejoin="round"/>
  <defs>
    <linearGradient id="paint0_linear_274_889" x1="2.59745" y1="4" x2="23.739" y2="24.8672" gradientUnits="userSpaceOnUse">
      <stop offset="0.4652" stop-color="#1481F1"/>
      <stop offset="1" stop-color="#014FE9"/>
    </linearGradient>
    <linearGradient id="paint1_linear_274_889" x1="2.59745" y1="4" x2="23.739" y2="24.8672" gradientUnits="userSpaceOnUse">
      <stop offset="0.4652" stop-color="#1481F1"/>
      <stop offset="1" stop-color="#014FE9"/>
    </linearGradient>
  </defs>
</svg>